%FSLAX45Y45*%
G04 Gerber Fmt 4.5, Leading zero omitted, Abs format (unit mm)*
G04 Created by KiCad (PCBNEW (after 2015-may-01 BZR unknown)-product) date 5/23/2015 03:29:00*
%MOMM*%
G01*
G04 APERTURE LIST*
%ADD10C,0.127000*%
%ADD11C,0.254000*%
%ADD12C,0.200000*%
%ADD13C,0.300000*%
G04 APERTURE END LIST*
D10*
D11*
X8404000Y-10992000D02*
X10104000Y-10992000D01*
X8404000Y-7992000D02*
X8404000Y-10992000D01*
X10104000Y-7992000D02*
X8404000Y-7992000D01*
X10104000Y-10992000D02*
X10104000Y-7992000D01*
D12*
X8969000Y-8212000D02*
X9079000Y-8322000D01*
X9079000Y-8212000D02*
X8969000Y-8322000D01*
X9429000Y-8212000D02*
X9539000Y-8322000D01*
X9539000Y-8212000D02*
X9429000Y-8322000D01*
X8712000Y-9962000D02*
G75*
G03X8712000Y-9962000I-115000J0D01*
G01*
X10026000Y-9962000D02*
G75*
G03X10026000Y-9962000I-115000J0D01*
G01*
D13*
X8662729Y-11470414D02*
X8662729Y-11170414D01*
X8734157Y-11170414D01*
X8777014Y-11184700D01*
X8805586Y-11213271D01*
X8819871Y-11241843D01*
X8834157Y-11298986D01*
X8834157Y-11341843D01*
X8819871Y-11398986D01*
X8805586Y-11427557D01*
X8777014Y-11456129D01*
X8734157Y-11470414D01*
X8662729Y-11470414D01*
X8962729Y-11470414D02*
X8962729Y-11270414D01*
X8962729Y-11327557D02*
X8977014Y-11298986D01*
X8991300Y-11284700D01*
X9019871Y-11270414D01*
X9048443Y-11270414D01*
X9148443Y-11470414D02*
X9148443Y-11270414D01*
X9148443Y-11170414D02*
X9134157Y-11184700D01*
X9148443Y-11198986D01*
X9162729Y-11184700D01*
X9148443Y-11170414D01*
X9148443Y-11198986D01*
X9334157Y-11470414D02*
X9305586Y-11456129D01*
X9291300Y-11427557D01*
X9291300Y-11170414D01*
X9491300Y-11470414D02*
X9462729Y-11456129D01*
X9448443Y-11427557D01*
X9448443Y-11170414D01*
X9834157Y-11470414D02*
X9834157Y-11170414D01*
X9934157Y-11384700D01*
X10034157Y-11170414D01*
X10034157Y-11470414D01*
X10305586Y-11470414D02*
X10305586Y-11313271D01*
X10291300Y-11284700D01*
X10262729Y-11270414D01*
X10205586Y-11270414D01*
X10177014Y-11284700D01*
X10305586Y-11456129D02*
X10277014Y-11470414D01*
X10205586Y-11470414D01*
X10177014Y-11456129D01*
X10162729Y-11427557D01*
X10162729Y-11398986D01*
X10177014Y-11370414D01*
X10205586Y-11356129D01*
X10277014Y-11356129D01*
X10305586Y-11341843D01*
X10448443Y-11270414D02*
X10448443Y-11570414D01*
X10448443Y-11284700D02*
X10477014Y-11270414D01*
X10534157Y-11270414D01*
X10562729Y-11284700D01*
X10577014Y-11298986D01*
X10591300Y-11327557D01*
X10591300Y-11413271D01*
X10577014Y-11441843D01*
X10562729Y-11456129D01*
X10534157Y-11470414D01*
X10477014Y-11470414D01*
X10448443Y-11456129D01*
X10719871Y-11441843D02*
X10734157Y-11456129D01*
X10719871Y-11470414D01*
X10705586Y-11456129D01*
X10719871Y-11441843D01*
X10719871Y-11470414D01*
X10719871Y-11284700D02*
X10734157Y-11298986D01*
X10719871Y-11313271D01*
X10705586Y-11298986D01*
X10719871Y-11284700D01*
X10719871Y-11313271D01*
X8281300Y-11909700D02*
X8391300Y-12019700D01*
X8391300Y-11909700D02*
X8281300Y-12019700D01*
X8819871Y-12100414D02*
X8648443Y-12100414D01*
X8734157Y-12100414D02*
X8734157Y-11800414D01*
X8705586Y-11843271D01*
X8677014Y-11871843D01*
X8648443Y-11886129D01*
X8948443Y-12071843D02*
X8962729Y-12086129D01*
X8948443Y-12100414D01*
X8934157Y-12086129D01*
X8948443Y-12071843D01*
X8948443Y-12100414D01*
X9248443Y-12100414D02*
X9077014Y-12100414D01*
X9162728Y-12100414D02*
X9162728Y-11800414D01*
X9134157Y-11843271D01*
X9105586Y-11871843D01*
X9077014Y-11886129D01*
X9434157Y-11800414D02*
X9462729Y-11800414D01*
X9491300Y-11814700D01*
X9505586Y-11828986D01*
X9519871Y-11857557D01*
X9534157Y-11914700D01*
X9534157Y-11986129D01*
X9519871Y-12043271D01*
X9505586Y-12071843D01*
X9491300Y-12086129D01*
X9462729Y-12100414D01*
X9434157Y-12100414D01*
X9405586Y-12086129D01*
X9391300Y-12071843D01*
X9377014Y-12043271D01*
X9362729Y-11986129D01*
X9362729Y-11914700D01*
X9377014Y-11857557D01*
X9391300Y-11828986D01*
X9405586Y-11814700D01*
X9434157Y-11800414D01*
X9662729Y-12100414D02*
X9662729Y-11900414D01*
X9662729Y-11928986D02*
X9677014Y-11914700D01*
X9705586Y-11900414D01*
X9748443Y-11900414D01*
X9777014Y-11914700D01*
X9791300Y-11943271D01*
X9791300Y-12100414D01*
X9791300Y-11943271D02*
X9805586Y-11914700D01*
X9834157Y-11900414D01*
X9877014Y-11900414D01*
X9905586Y-11914700D01*
X9919871Y-11943271D01*
X9919871Y-12100414D01*
X10062729Y-12100414D02*
X10062729Y-11900414D01*
X10062729Y-11928986D02*
X10077014Y-11914700D01*
X10105586Y-11900414D01*
X10148443Y-11900414D01*
X10177014Y-11914700D01*
X10191300Y-11943271D01*
X10191300Y-12100414D01*
X10191300Y-11943271D02*
X10205586Y-11914700D01*
X10234157Y-11900414D01*
X10277014Y-11900414D01*
X10305586Y-11914700D01*
X10319871Y-11943271D01*
X10319871Y-12100414D01*
X10905586Y-11786129D02*
X10648443Y-12171843D01*
X11291300Y-11800414D02*
X11319871Y-11800414D01*
X11348443Y-11814700D01*
X11362728Y-11828986D01*
X11377014Y-11857557D01*
X11391300Y-11914700D01*
X11391300Y-11986129D01*
X11377014Y-12043271D01*
X11362728Y-12071843D01*
X11348443Y-12086129D01*
X11319871Y-12100414D01*
X11291300Y-12100414D01*
X11262728Y-12086129D01*
X11248443Y-12071843D01*
X11234157Y-12043271D01*
X11219871Y-11986129D01*
X11219871Y-11914700D01*
X11234157Y-11857557D01*
X11248443Y-11828986D01*
X11262728Y-11814700D01*
X11291300Y-11800414D01*
X11519871Y-12071843D02*
X11534157Y-12086129D01*
X11519871Y-12100414D01*
X11505586Y-12086129D01*
X11519871Y-12071843D01*
X11519871Y-12100414D01*
X11719871Y-11800414D02*
X11748443Y-11800414D01*
X11777014Y-11814700D01*
X11791300Y-11828986D01*
X11805585Y-11857557D01*
X11819871Y-11914700D01*
X11819871Y-11986129D01*
X11805585Y-12043271D01*
X11791300Y-12071843D01*
X11777014Y-12086129D01*
X11748443Y-12100414D01*
X11719871Y-12100414D01*
X11691300Y-12086129D01*
X11677014Y-12071843D01*
X11662728Y-12043271D01*
X11648443Y-11986129D01*
X11648443Y-11914700D01*
X11662728Y-11857557D01*
X11677014Y-11828986D01*
X11691300Y-11814700D01*
X11719871Y-11800414D01*
X12077014Y-11900414D02*
X12077014Y-12100414D01*
X12005585Y-11786129D02*
X11934157Y-12000414D01*
X12119871Y-12000414D01*
X12205585Y-11800414D02*
X12391300Y-11800414D01*
X12291300Y-11914700D01*
X12334157Y-11914700D01*
X12362728Y-11928986D01*
X12377014Y-11943271D01*
X12391300Y-11971843D01*
X12391300Y-12043271D01*
X12377014Y-12071843D01*
X12362728Y-12086129D01*
X12334157Y-12100414D01*
X12248443Y-12100414D01*
X12219871Y-12086129D01*
X12205585Y-12071843D01*
X12505586Y-11800414D02*
X12505586Y-11857557D01*
X12619871Y-11800414D02*
X12619871Y-11857557D01*
X13062728Y-12214700D02*
X13048443Y-12200414D01*
X13019871Y-12157557D01*
X13005585Y-12128986D01*
X12991300Y-12086129D01*
X12977014Y-12014700D01*
X12977014Y-11957557D01*
X12991300Y-11886129D01*
X13005585Y-11843271D01*
X13019871Y-11814700D01*
X13048443Y-11771843D01*
X13062728Y-11757557D01*
X13162728Y-11828986D02*
X13177014Y-11814700D01*
X13205585Y-11800414D01*
X13277014Y-11800414D01*
X13305585Y-11814700D01*
X13319871Y-11828986D01*
X13334157Y-11857557D01*
X13334157Y-11886129D01*
X13319871Y-11928986D01*
X13148443Y-12100414D01*
X13334157Y-12100414D01*
X13691300Y-12100414D02*
X13691300Y-11800414D01*
X13819871Y-12100414D02*
X13819871Y-11943271D01*
X13805585Y-11914700D01*
X13777014Y-11900414D01*
X13734157Y-11900414D01*
X13705585Y-11914700D01*
X13691300Y-11928986D01*
X14005585Y-12100414D02*
X13977014Y-12086129D01*
X13962728Y-12071843D01*
X13948443Y-12043271D01*
X13948443Y-11957557D01*
X13962728Y-11928986D01*
X13977014Y-11914700D01*
X14005585Y-11900414D01*
X14048443Y-11900414D01*
X14077014Y-11914700D01*
X14091300Y-11928986D01*
X14105585Y-11957557D01*
X14105585Y-12043271D01*
X14091300Y-12071843D01*
X14077014Y-12086129D01*
X14048443Y-12100414D01*
X14005585Y-12100414D01*
X14277014Y-12100414D02*
X14248443Y-12086129D01*
X14234157Y-12057557D01*
X14234157Y-11800414D01*
X14505586Y-12086129D02*
X14477014Y-12100414D01*
X14419871Y-12100414D01*
X14391300Y-12086129D01*
X14377014Y-12057557D01*
X14377014Y-11943271D01*
X14391300Y-11914700D01*
X14419871Y-11900414D01*
X14477014Y-11900414D01*
X14505586Y-11914700D01*
X14519871Y-11943271D01*
X14519871Y-11971843D01*
X14377014Y-12000414D01*
X14634157Y-12086129D02*
X14662728Y-12100414D01*
X14719871Y-12100414D01*
X14748443Y-12086129D01*
X14762728Y-12057557D01*
X14762728Y-12043271D01*
X14748443Y-12014700D01*
X14719871Y-12000414D01*
X14677014Y-12000414D01*
X14648443Y-11986129D01*
X14634157Y-11957557D01*
X14634157Y-11943271D01*
X14648443Y-11914700D01*
X14677014Y-11900414D01*
X14719871Y-11900414D01*
X14748443Y-11914700D01*
X14862728Y-12214700D02*
X14877014Y-12200414D01*
X14905586Y-12157557D01*
X14919871Y-12128986D01*
X14934157Y-12086129D01*
X14948443Y-12014700D01*
X14948443Y-11957557D01*
X14934157Y-11886129D01*
X14919871Y-11843271D01*
X14905586Y-11814700D01*
X14877014Y-11771843D01*
X14862728Y-11757557D01*
X8391300Y-12360700D02*
G75*
G03X8391300Y-12360700I-115000J0D01*
G01*
X8648443Y-12224986D02*
X8662729Y-12210700D01*
X8691300Y-12196414D01*
X8762729Y-12196414D01*
X8791300Y-12210700D01*
X8805586Y-12224986D01*
X8819871Y-12253557D01*
X8819871Y-12282129D01*
X8805586Y-12324986D01*
X8634157Y-12496414D01*
X8819871Y-12496414D01*
X8948443Y-12467843D02*
X8962729Y-12482129D01*
X8948443Y-12496414D01*
X8934157Y-12482129D01*
X8948443Y-12467843D01*
X8948443Y-12496414D01*
X9062728Y-12196414D02*
X9248443Y-12196414D01*
X9148443Y-12310700D01*
X9191300Y-12310700D01*
X9219871Y-12324986D01*
X9234157Y-12339271D01*
X9248443Y-12367843D01*
X9248443Y-12439271D01*
X9234157Y-12467843D01*
X9219871Y-12482129D01*
X9191300Y-12496414D01*
X9105586Y-12496414D01*
X9077014Y-12482129D01*
X9062728Y-12467843D01*
X9434157Y-12196414D02*
X9462729Y-12196414D01*
X9491300Y-12210700D01*
X9505586Y-12224986D01*
X9519871Y-12253557D01*
X9534157Y-12310700D01*
X9534157Y-12382129D01*
X9519871Y-12439271D01*
X9505586Y-12467843D01*
X9491300Y-12482129D01*
X9462729Y-12496414D01*
X9434157Y-12496414D01*
X9405586Y-12482129D01*
X9391300Y-12467843D01*
X9377014Y-12439271D01*
X9362729Y-12382129D01*
X9362729Y-12310700D01*
X9377014Y-12253557D01*
X9391300Y-12224986D01*
X9405586Y-12210700D01*
X9434157Y-12196414D01*
X9662729Y-12496414D02*
X9662729Y-12296414D01*
X9662729Y-12324986D02*
X9677014Y-12310700D01*
X9705586Y-12296414D01*
X9748443Y-12296414D01*
X9777014Y-12310700D01*
X9791300Y-12339271D01*
X9791300Y-12496414D01*
X9791300Y-12339271D02*
X9805586Y-12310700D01*
X9834157Y-12296414D01*
X9877014Y-12296414D01*
X9905586Y-12310700D01*
X9919871Y-12339271D01*
X9919871Y-12496414D01*
X10062729Y-12496414D02*
X10062729Y-12296414D01*
X10062729Y-12324986D02*
X10077014Y-12310700D01*
X10105586Y-12296414D01*
X10148443Y-12296414D01*
X10177014Y-12310700D01*
X10191300Y-12339271D01*
X10191300Y-12496414D01*
X10191300Y-12339271D02*
X10205586Y-12310700D01*
X10234157Y-12296414D01*
X10277014Y-12296414D01*
X10305586Y-12310700D01*
X10319871Y-12339271D01*
X10319871Y-12496414D01*
X10905586Y-12182129D02*
X10648443Y-12567843D01*
X11291300Y-12196414D02*
X11319871Y-12196414D01*
X11348443Y-12210700D01*
X11362728Y-12224986D01*
X11377014Y-12253557D01*
X11391300Y-12310700D01*
X11391300Y-12382129D01*
X11377014Y-12439271D01*
X11362728Y-12467843D01*
X11348443Y-12482129D01*
X11319871Y-12496414D01*
X11291300Y-12496414D01*
X11262728Y-12482129D01*
X11248443Y-12467843D01*
X11234157Y-12439271D01*
X11219871Y-12382129D01*
X11219871Y-12310700D01*
X11234157Y-12253557D01*
X11248443Y-12224986D01*
X11262728Y-12210700D01*
X11291300Y-12196414D01*
X11519871Y-12467843D02*
X11534157Y-12482129D01*
X11519871Y-12496414D01*
X11505586Y-12482129D01*
X11519871Y-12467843D01*
X11519871Y-12496414D01*
X11719871Y-12196414D02*
X11748443Y-12196414D01*
X11777014Y-12210700D01*
X11791300Y-12224986D01*
X11805585Y-12253557D01*
X11819871Y-12310700D01*
X11819871Y-12382129D01*
X11805585Y-12439271D01*
X11791300Y-12467843D01*
X11777014Y-12482129D01*
X11748443Y-12496414D01*
X11719871Y-12496414D01*
X11691300Y-12482129D01*
X11677014Y-12467843D01*
X11662728Y-12439271D01*
X11648443Y-12382129D01*
X11648443Y-12310700D01*
X11662728Y-12253557D01*
X11677014Y-12224986D01*
X11691300Y-12210700D01*
X11719871Y-12196414D01*
X11962728Y-12496414D02*
X12019871Y-12496414D01*
X12048443Y-12482129D01*
X12062728Y-12467843D01*
X12091300Y-12424986D01*
X12105585Y-12367843D01*
X12105585Y-12253557D01*
X12091300Y-12224986D01*
X12077014Y-12210700D01*
X12048443Y-12196414D01*
X11991300Y-12196414D01*
X11962728Y-12210700D01*
X11948443Y-12224986D01*
X11934157Y-12253557D01*
X11934157Y-12324986D01*
X11948443Y-12353557D01*
X11962728Y-12367843D01*
X11991300Y-12382129D01*
X12048443Y-12382129D01*
X12077014Y-12367843D01*
X12091300Y-12353557D01*
X12105585Y-12324986D01*
X12391300Y-12496414D02*
X12219871Y-12496414D01*
X12305585Y-12496414D02*
X12305585Y-12196414D01*
X12277014Y-12239271D01*
X12248443Y-12267843D01*
X12219871Y-12282129D01*
X12505586Y-12196414D02*
X12505586Y-12253557D01*
X12619871Y-12196414D02*
X12619871Y-12253557D01*
X13062728Y-12610700D02*
X13048443Y-12596414D01*
X13019871Y-12553557D01*
X13005585Y-12524986D01*
X12991300Y-12482129D01*
X12977014Y-12410700D01*
X12977014Y-12353557D01*
X12991300Y-12282129D01*
X13005585Y-12239271D01*
X13019871Y-12210700D01*
X13048443Y-12167843D01*
X13062728Y-12153557D01*
X13162728Y-12224986D02*
X13177014Y-12210700D01*
X13205585Y-12196414D01*
X13277014Y-12196414D01*
X13305585Y-12210700D01*
X13319871Y-12224986D01*
X13334157Y-12253557D01*
X13334157Y-12282129D01*
X13319871Y-12324986D01*
X13148443Y-12496414D01*
X13334157Y-12496414D01*
X13691300Y-12496414D02*
X13691300Y-12196414D01*
X13819871Y-12496414D02*
X13819871Y-12339271D01*
X13805585Y-12310700D01*
X13777014Y-12296414D01*
X13734157Y-12296414D01*
X13705585Y-12310700D01*
X13691300Y-12324986D01*
X14005585Y-12496414D02*
X13977014Y-12482129D01*
X13962728Y-12467843D01*
X13948443Y-12439271D01*
X13948443Y-12353557D01*
X13962728Y-12324986D01*
X13977014Y-12310700D01*
X14005585Y-12296414D01*
X14048443Y-12296414D01*
X14077014Y-12310700D01*
X14091300Y-12324986D01*
X14105585Y-12353557D01*
X14105585Y-12439271D01*
X14091300Y-12467843D01*
X14077014Y-12482129D01*
X14048443Y-12496414D01*
X14005585Y-12496414D01*
X14277014Y-12496414D02*
X14248443Y-12482129D01*
X14234157Y-12453557D01*
X14234157Y-12196414D01*
X14505586Y-12482129D02*
X14477014Y-12496414D01*
X14419871Y-12496414D01*
X14391300Y-12482129D01*
X14377014Y-12453557D01*
X14377014Y-12339271D01*
X14391300Y-12310700D01*
X14419871Y-12296414D01*
X14477014Y-12296414D01*
X14505586Y-12310700D01*
X14519871Y-12339271D01*
X14519871Y-12367843D01*
X14377014Y-12396414D01*
X14634157Y-12482129D02*
X14662728Y-12496414D01*
X14719871Y-12496414D01*
X14748443Y-12482129D01*
X14762728Y-12453557D01*
X14762728Y-12439271D01*
X14748443Y-12410700D01*
X14719871Y-12396414D01*
X14677014Y-12396414D01*
X14648443Y-12382129D01*
X14634157Y-12353557D01*
X14634157Y-12339271D01*
X14648443Y-12310700D01*
X14677014Y-12296414D01*
X14719871Y-12296414D01*
X14748443Y-12310700D01*
X14862728Y-12610700D02*
X14877014Y-12596414D01*
X14905586Y-12553557D01*
X14919871Y-12524986D01*
X14934157Y-12482129D01*
X14948443Y-12410700D01*
X14948443Y-12353557D01*
X14934157Y-12282129D01*
X14919871Y-12239271D01*
X14905586Y-12210700D01*
X14877014Y-12167843D01*
X14862728Y-12153557D01*
M02*
