G04 #@! TF.FileFunction,Drawing*
%FSLAX45Y45*%
G04 Gerber Fmt 4.5, Leading zero omitted, Abs format (unit mm)*
G04 Created by KiCad (PCBNEW (after 2015-may-01 BZR unknown)-product) date 5/23/2015 03:28:49*
%MOMM*%
G01*
G04 APERTURE LIST*
%ADD10C,0.254000*%
G04 APERTURE END LIST*
D10*
X8070152Y-10024190D02*
X8070152Y-9945571D01*
X8118533Y-9987905D01*
X8118533Y-9969762D01*
X8124581Y-9957667D01*
X8130629Y-9951619D01*
X8142724Y-9945571D01*
X8172962Y-9945571D01*
X8185057Y-9951619D01*
X8191105Y-9957667D01*
X8197152Y-9969762D01*
X8197152Y-10006048D01*
X8191105Y-10018143D01*
X8185057Y-10024190D01*
X8070152Y-9866952D02*
X8070152Y-9854857D01*
X8076200Y-9842762D01*
X8082248Y-9836714D01*
X8094343Y-9830667D01*
X8118533Y-9824619D01*
X8148771Y-9824619D01*
X8172962Y-9830667D01*
X8185057Y-9836714D01*
X8191105Y-9842762D01*
X8197152Y-9854857D01*
X8197152Y-9866952D01*
X8191105Y-9879048D01*
X8185057Y-9885095D01*
X8172962Y-9891143D01*
X8148771Y-9897190D01*
X8118533Y-9897190D01*
X8094343Y-9891143D01*
X8082248Y-9885095D01*
X8076200Y-9879048D01*
X8070152Y-9866952D01*
X8185057Y-9770190D02*
X8191105Y-9764143D01*
X8197152Y-9770190D01*
X8191105Y-9776238D01*
X8185057Y-9770190D01*
X8197152Y-9770190D01*
X8070152Y-9685524D02*
X8070152Y-9673429D01*
X8076200Y-9661333D01*
X8082248Y-9655286D01*
X8094343Y-9649238D01*
X8118533Y-9643190D01*
X8148771Y-9643190D01*
X8172962Y-9649238D01*
X8185057Y-9655286D01*
X8191105Y-9661333D01*
X8197152Y-9673429D01*
X8197152Y-9685524D01*
X8191105Y-9697619D01*
X8185057Y-9703667D01*
X8172962Y-9709714D01*
X8148771Y-9715762D01*
X8118533Y-9715762D01*
X8094343Y-9709714D01*
X8082248Y-9703667D01*
X8076200Y-9697619D01*
X8070152Y-9685524D01*
X8070152Y-9564571D02*
X8070152Y-9552476D01*
X8076200Y-9540381D01*
X8082248Y-9534333D01*
X8094343Y-9528286D01*
X8118533Y-9522238D01*
X8148771Y-9522238D01*
X8172962Y-9528286D01*
X8185057Y-9534333D01*
X8191105Y-9540381D01*
X8197152Y-9552476D01*
X8197152Y-9564571D01*
X8191105Y-9576667D01*
X8185057Y-9582714D01*
X8172962Y-9588762D01*
X8148771Y-9594809D01*
X8118533Y-9594809D01*
X8094343Y-9588762D01*
X8082248Y-9582714D01*
X8076200Y-9576667D01*
X8070152Y-9564571D01*
X8070152Y-9443619D02*
X8070152Y-9431524D01*
X8076200Y-9419429D01*
X8082248Y-9413381D01*
X8094343Y-9407333D01*
X8118533Y-9401286D01*
X8148771Y-9401286D01*
X8172962Y-9407333D01*
X8185057Y-9413381D01*
X8191105Y-9419429D01*
X8197152Y-9431524D01*
X8197152Y-9443619D01*
X8191105Y-9455714D01*
X8185057Y-9461762D01*
X8172962Y-9467809D01*
X8148771Y-9473857D01*
X8118533Y-9473857D01*
X8094343Y-9467809D01*
X8082248Y-9461762D01*
X8076200Y-9455714D01*
X8070152Y-9443619D01*
X8197152Y-9250095D02*
X8112486Y-9250095D01*
X8124581Y-9250095D02*
X8118533Y-9244048D01*
X8112486Y-9231952D01*
X8112486Y-9213809D01*
X8118533Y-9201714D01*
X8130629Y-9195667D01*
X8197152Y-9195667D01*
X8130629Y-9195667D02*
X8118533Y-9189619D01*
X8112486Y-9177524D01*
X8112486Y-9159381D01*
X8118533Y-9147286D01*
X8130629Y-9141238D01*
X8197152Y-9141238D01*
X8197152Y-9080762D02*
X8112486Y-9080762D01*
X8124581Y-9080762D02*
X8118533Y-9074714D01*
X8112486Y-9062619D01*
X8112486Y-9044476D01*
X8118533Y-9032381D01*
X8130629Y-9026333D01*
X8197152Y-9026333D01*
X8130629Y-9026333D02*
X8118533Y-9020286D01*
X8112486Y-9008190D01*
X8112486Y-8990048D01*
X8118533Y-8977952D01*
X8130629Y-8971905D01*
X8197152Y-8971905D01*
X8254000Y-10992000D02*
X8254000Y-7992000D01*
X8354000Y-10992000D02*
X8025400Y-10992000D01*
X8354000Y-7992000D02*
X8025400Y-7992000D01*
X8254000Y-7992000D02*
X8312642Y-8104650D01*
X8254000Y-7992000D02*
X8195358Y-8104650D01*
X8254000Y-10992000D02*
X8312642Y-10879350D01*
X8254000Y-10992000D02*
X8195358Y-10879350D01*
X8800429Y-7528016D02*
X8727857Y-7528016D01*
X8764143Y-7528016D02*
X8764143Y-7401016D01*
X8752048Y-7419159D01*
X8739952Y-7431254D01*
X8727857Y-7437302D01*
X8842762Y-7401016D02*
X8927429Y-7401016D01*
X8873000Y-7528016D01*
X8975810Y-7515921D02*
X8981857Y-7521968D01*
X8975810Y-7528016D01*
X8969762Y-7521968D01*
X8975810Y-7515921D01*
X8975810Y-7528016D01*
X9060476Y-7401016D02*
X9072572Y-7401016D01*
X9084667Y-7407064D01*
X9090714Y-7413111D01*
X9096762Y-7425206D01*
X9102810Y-7449397D01*
X9102810Y-7479635D01*
X9096762Y-7503825D01*
X9090714Y-7515921D01*
X9084667Y-7521968D01*
X9072572Y-7528016D01*
X9060476Y-7528016D01*
X9048381Y-7521968D01*
X9042333Y-7515921D01*
X9036286Y-7503825D01*
X9030238Y-7479635D01*
X9030238Y-7449397D01*
X9036286Y-7425206D01*
X9042333Y-7413111D01*
X9048381Y-7407064D01*
X9060476Y-7401016D01*
X9181429Y-7401016D02*
X9193524Y-7401016D01*
X9205619Y-7407064D01*
X9211667Y-7413111D01*
X9217714Y-7425206D01*
X9223762Y-7449397D01*
X9223762Y-7479635D01*
X9217714Y-7503825D01*
X9211667Y-7515921D01*
X9205619Y-7521968D01*
X9193524Y-7528016D01*
X9181429Y-7528016D01*
X9169333Y-7521968D01*
X9163286Y-7515921D01*
X9157238Y-7503825D01*
X9151191Y-7479635D01*
X9151191Y-7449397D01*
X9157238Y-7425206D01*
X9163286Y-7413111D01*
X9169333Y-7407064D01*
X9181429Y-7401016D01*
X9302381Y-7401016D02*
X9314476Y-7401016D01*
X9326572Y-7407064D01*
X9332619Y-7413111D01*
X9338667Y-7425206D01*
X9344714Y-7449397D01*
X9344714Y-7479635D01*
X9338667Y-7503825D01*
X9332619Y-7515921D01*
X9326572Y-7521968D01*
X9314476Y-7528016D01*
X9302381Y-7528016D01*
X9290286Y-7521968D01*
X9284238Y-7515921D01*
X9278191Y-7503825D01*
X9272143Y-7479635D01*
X9272143Y-7449397D01*
X9278191Y-7425206D01*
X9284238Y-7413111D01*
X9290286Y-7407064D01*
X9302381Y-7401016D01*
X9495905Y-7528016D02*
X9495905Y-7443349D01*
X9495905Y-7455445D02*
X9501953Y-7449397D01*
X9514048Y-7443349D01*
X9532191Y-7443349D01*
X9544286Y-7449397D01*
X9550334Y-7461492D01*
X9550334Y-7528016D01*
X9550334Y-7461492D02*
X9556381Y-7449397D01*
X9568476Y-7443349D01*
X9586619Y-7443349D01*
X9598714Y-7449397D01*
X9604762Y-7461492D01*
X9604762Y-7528016D01*
X9665238Y-7528016D02*
X9665238Y-7443349D01*
X9665238Y-7455445D02*
X9671286Y-7449397D01*
X9683381Y-7443349D01*
X9701524Y-7443349D01*
X9713619Y-7449397D01*
X9719667Y-7461492D01*
X9719667Y-7528016D01*
X9719667Y-7461492D02*
X9725714Y-7449397D01*
X9737810Y-7443349D01*
X9755953Y-7443349D01*
X9768048Y-7449397D01*
X9774095Y-7461492D01*
X9774095Y-7528016D01*
X8404000Y-7356264D02*
X10104000Y-7356264D01*
X8404000Y-7256264D02*
X8404000Y-7584864D01*
X10104000Y-7256264D02*
X10104000Y-7584864D01*
X10104000Y-7356264D02*
X9991350Y-7414906D01*
X10104000Y-7356264D02*
X9991350Y-7297621D01*
X8404000Y-7356264D02*
X8516650Y-7414906D01*
X8404000Y-7356264D02*
X8516650Y-7297621D01*
X10360848Y-9120071D02*
X10360848Y-9047500D01*
X10360848Y-9083786D02*
X10487848Y-9083786D01*
X10469705Y-9071691D01*
X10457610Y-9059595D01*
X10451562Y-9047500D01*
X10372943Y-9174500D02*
X10366895Y-9180548D01*
X10360848Y-9174500D01*
X10366895Y-9168452D01*
X10372943Y-9174500D01*
X10360848Y-9174500D01*
X10360848Y-9301500D02*
X10360848Y-9228929D01*
X10360848Y-9265214D02*
X10487848Y-9265214D01*
X10469705Y-9253119D01*
X10457610Y-9241024D01*
X10451562Y-9228929D01*
X10433419Y-9374072D02*
X10439467Y-9361976D01*
X10445514Y-9355929D01*
X10457610Y-9349881D01*
X10463657Y-9349881D01*
X10475752Y-9355929D01*
X10481800Y-9361976D01*
X10487848Y-9374072D01*
X10487848Y-9398262D01*
X10481800Y-9410357D01*
X10475752Y-9416405D01*
X10463657Y-9422452D01*
X10457610Y-9422452D01*
X10445514Y-9416405D01*
X10439467Y-9410357D01*
X10433419Y-9398262D01*
X10433419Y-9374072D01*
X10427371Y-9361976D01*
X10421324Y-9355929D01*
X10409229Y-9349881D01*
X10385038Y-9349881D01*
X10372943Y-9355929D01*
X10366895Y-9361976D01*
X10360848Y-9374072D01*
X10360848Y-9398262D01*
X10366895Y-9410357D01*
X10372943Y-9416405D01*
X10385038Y-9422452D01*
X10409229Y-9422452D01*
X10421324Y-9416405D01*
X10427371Y-9410357D01*
X10433419Y-9398262D01*
X10360848Y-9543405D02*
X10360848Y-9470833D01*
X10360848Y-9507119D02*
X10487848Y-9507119D01*
X10469705Y-9495024D01*
X10457610Y-9482929D01*
X10451562Y-9470833D01*
X10360848Y-9664357D02*
X10360848Y-9591786D01*
X10360848Y-9628072D02*
X10487848Y-9628072D01*
X10469705Y-9615976D01*
X10457610Y-9603881D01*
X10451562Y-9591786D01*
X10360848Y-9815548D02*
X10445514Y-9815548D01*
X10487848Y-9815548D02*
X10481800Y-9809500D01*
X10475752Y-9815548D01*
X10481800Y-9821595D01*
X10487848Y-9815548D01*
X10475752Y-9815548D01*
X10445514Y-9876024D02*
X10360848Y-9876024D01*
X10433419Y-9876024D02*
X10439467Y-9882072D01*
X10445514Y-9894167D01*
X10445514Y-9912310D01*
X10439467Y-9924405D01*
X10427371Y-9930453D01*
X10360848Y-9930453D01*
X10304000Y-7992000D02*
X10304000Y-10992000D01*
X10154000Y-7992000D02*
X10532600Y-7992000D01*
X10154000Y-10992000D02*
X10532600Y-10992000D01*
X10304000Y-10992000D02*
X10245358Y-10879350D01*
X10304000Y-10992000D02*
X10362642Y-10879350D01*
X10304000Y-7992000D02*
X10245358Y-8104650D01*
X10304000Y-7992000D02*
X10362642Y-8104650D01*
X8839738Y-7608152D02*
X8851833Y-7608152D01*
X8863929Y-7614200D01*
X8869976Y-7620248D01*
X8876024Y-7632343D01*
X8882071Y-7656533D01*
X8882071Y-7686771D01*
X8876024Y-7710962D01*
X8869976Y-7723057D01*
X8863929Y-7729105D01*
X8851833Y-7735152D01*
X8839738Y-7735152D01*
X8827643Y-7729105D01*
X8821595Y-7723057D01*
X8815548Y-7710962D01*
X8809500Y-7686771D01*
X8809500Y-7656533D01*
X8815548Y-7632343D01*
X8821595Y-7620248D01*
X8827643Y-7614200D01*
X8839738Y-7608152D01*
X8936500Y-7723057D02*
X8942548Y-7729105D01*
X8936500Y-7735152D01*
X8930452Y-7729105D01*
X8936500Y-7723057D01*
X8936500Y-7735152D01*
X9051405Y-7608152D02*
X9027214Y-7608152D01*
X9015119Y-7614200D01*
X9009071Y-7620248D01*
X8996976Y-7638390D01*
X8990929Y-7662581D01*
X8990929Y-7710962D01*
X8996976Y-7723057D01*
X9003024Y-7729105D01*
X9015119Y-7735152D01*
X9039310Y-7735152D01*
X9051405Y-7729105D01*
X9057452Y-7723057D01*
X9063500Y-7710962D01*
X9063500Y-7680724D01*
X9057452Y-7668629D01*
X9051405Y-7662581D01*
X9039310Y-7656533D01*
X9015119Y-7656533D01*
X9003024Y-7662581D01*
X8996976Y-7668629D01*
X8990929Y-7680724D01*
X9172357Y-7608152D02*
X9148167Y-7608152D01*
X9136072Y-7614200D01*
X9130024Y-7620248D01*
X9117929Y-7638390D01*
X9111881Y-7662581D01*
X9111881Y-7710962D01*
X9117929Y-7723057D01*
X9123976Y-7729105D01*
X9136072Y-7735152D01*
X9160262Y-7735152D01*
X9172357Y-7729105D01*
X9178405Y-7723057D01*
X9184452Y-7710962D01*
X9184452Y-7680724D01*
X9178405Y-7668629D01*
X9172357Y-7662581D01*
X9160262Y-7656533D01*
X9136072Y-7656533D01*
X9123976Y-7662581D01*
X9117929Y-7668629D01*
X9111881Y-7680724D01*
X9244929Y-7735152D02*
X9269119Y-7735152D01*
X9281214Y-7729105D01*
X9287262Y-7723057D01*
X9299357Y-7704914D01*
X9305405Y-7680724D01*
X9305405Y-7632343D01*
X9299357Y-7620248D01*
X9293310Y-7614200D01*
X9281214Y-7608152D01*
X9257024Y-7608152D01*
X9244929Y-7614200D01*
X9238881Y-7620248D01*
X9232833Y-7632343D01*
X9232833Y-7662581D01*
X9238881Y-7674676D01*
X9244929Y-7680724D01*
X9257024Y-7686771D01*
X9281214Y-7686771D01*
X9293310Y-7680724D01*
X9299357Y-7674676D01*
X9305405Y-7662581D01*
X9347738Y-7608152D02*
X9426357Y-7608152D01*
X9384024Y-7656533D01*
X9402167Y-7656533D01*
X9414262Y-7662581D01*
X9420310Y-7668629D01*
X9426357Y-7680724D01*
X9426357Y-7710962D01*
X9420310Y-7723057D01*
X9414262Y-7729105D01*
X9402167Y-7735152D01*
X9365881Y-7735152D01*
X9353786Y-7729105D01*
X9347738Y-7723057D01*
X9577548Y-7735152D02*
X9577548Y-7650486D01*
X9577548Y-7608152D02*
X9571500Y-7614200D01*
X9577548Y-7620248D01*
X9583595Y-7614200D01*
X9577548Y-7608152D01*
X9577548Y-7620248D01*
X9638024Y-7650486D02*
X9638024Y-7735152D01*
X9638024Y-7662581D02*
X9644072Y-7656533D01*
X9656167Y-7650486D01*
X9674310Y-7650486D01*
X9686405Y-7656533D01*
X9692453Y-7668629D01*
X9692453Y-7735152D01*
X8404000Y-7792000D02*
X10104000Y-7792000D01*
X8404000Y-7942000D02*
X8404000Y-7563400D01*
X10104000Y-7942000D02*
X10104000Y-7563400D01*
X10104000Y-7792000D02*
X9991350Y-7850642D01*
X10104000Y-7792000D02*
X9991350Y-7733358D01*
X8404000Y-7792000D02*
X8516650Y-7850642D01*
X8404000Y-7792000D02*
X8516650Y-7733358D01*
M02*
