G04 #@! TF.FileFunction,Copper,L2,Bot,Signal*
%FSLAX45Y45*%
G04 Gerber Fmt 4.5, Leading zero omitted, Abs format (unit mm)*
G04 Created by KiCad (PCBNEW (after 2015-may-01 BZR unknown)-product) date 5/23/2015 03:28:49*
%MOMM*%
G01*
G04 APERTURE LIST*
%ADD10C,0.254000*%
%ADD11R,2.032000X1.727200*%
%ADD12O,2.032000X1.727200*%
%ADD13O,1.500000X3.500000*%
%ADD14C,1.016000*%
%ADD15C,0.635000*%
%ADD16C,0.304800*%
G04 APERTURE END LIST*
D10*
D11*
X9889000Y-8706000D03*
D12*
X9889000Y-8960000D03*
X9889000Y-9214000D03*
X9889000Y-9468000D03*
D13*
X8669000Y-8267000D03*
X9839000Y-8267000D03*
D14*
X9609600Y-8756800D03*
X9054000Y-8892000D03*
X9076200Y-9214000D03*
X9609600Y-9341000D03*
X8904000Y-8690963D03*
X9190500Y-8720460D03*
X9317500Y-8720460D03*
D15*
X9038823Y-8556140D02*
X8904000Y-8690963D01*
X9723900Y-8556140D02*
X9038823Y-8556140D01*
X9873760Y-8706000D02*
X9723900Y-8556140D01*
X9889000Y-8706000D02*
X9873760Y-8706000D01*
D10*
X9495301Y-8883801D02*
X9571500Y-8960000D01*
X9401263Y-8669659D02*
X9495301Y-8763698D01*
X9398271Y-8669659D02*
X9401263Y-8669659D01*
X9360172Y-8631560D02*
X9398271Y-8669659D01*
X9571500Y-8960000D02*
X9889000Y-8960000D01*
X9279400Y-8631560D02*
X9360172Y-8631560D01*
X9495301Y-8763698D02*
X9495301Y-8883801D01*
X9190500Y-8720460D02*
X9279400Y-8631560D01*
X9380220Y-8720460D02*
X9317500Y-8720460D01*
X9444500Y-8784740D02*
X9380220Y-8720460D01*
X9444500Y-8960000D02*
X9444500Y-8784740D01*
X9698500Y-9214000D02*
X9444500Y-8960000D01*
X9889000Y-9214000D02*
X9698500Y-9214000D01*
D16*
G36*
X9818830Y-8838976D02*
X9777479Y-8866605D01*
X9754110Y-8901580D01*
X9595698Y-8901580D01*
X9553721Y-8859603D01*
X9553721Y-8763698D01*
X9549274Y-8741341D01*
X9549274Y-8741341D01*
X9536610Y-8722388D01*
X9447832Y-8633610D01*
X9691811Y-8633610D01*
X9740784Y-8682584D01*
X9740784Y-8792360D01*
X9744167Y-8809793D01*
X9754232Y-8825115D01*
X9769426Y-8835371D01*
X9787400Y-8838976D01*
X9818830Y-8838976D01*
X9818830Y-8838976D01*
G37*
X9818830Y-8838976D02*
X9777479Y-8866605D01*
X9754110Y-8901580D01*
X9595698Y-8901580D01*
X9553721Y-8859603D01*
X9553721Y-8763698D01*
X9549274Y-8741341D01*
X9549274Y-8741341D01*
X9536610Y-8722388D01*
X9447832Y-8633610D01*
X9691811Y-8633610D01*
X9740784Y-8682584D01*
X9740784Y-8792360D01*
X9744167Y-8809793D01*
X9754232Y-8825115D01*
X9769426Y-8835371D01*
X9787400Y-8838976D01*
X9818830Y-8838976D01*
G36*
X10045580Y-10933580D02*
X8462420Y-10933580D01*
X8462420Y-10054676D01*
X8505841Y-10098172D01*
X8564891Y-10122692D01*
X8628829Y-10122748D01*
X8687922Y-10098331D01*
X8733172Y-10053159D01*
X8757692Y-9994109D01*
X8757748Y-9930171D01*
X8733331Y-9871078D01*
X8688159Y-9825828D01*
X8629109Y-9801308D01*
X8565171Y-9801252D01*
X8506078Y-9825669D01*
X8462420Y-9869251D01*
X8462420Y-8050420D01*
X8626448Y-8050420D01*
X8622803Y-8051145D01*
X8583638Y-8077314D01*
X8557469Y-8116478D01*
X8548280Y-8162676D01*
X8548280Y-8371324D01*
X8557469Y-8417522D01*
X8583638Y-8456686D01*
X8622803Y-8482855D01*
X8669000Y-8492044D01*
X8715198Y-8482855D01*
X8754362Y-8456686D01*
X8780531Y-8417522D01*
X8789720Y-8371324D01*
X8789720Y-8162676D01*
X8780531Y-8116478D01*
X8754362Y-8077314D01*
X8715198Y-8051145D01*
X8711552Y-8050420D01*
X9796448Y-8050420D01*
X9792803Y-8051145D01*
X9753638Y-8077314D01*
X9727469Y-8116478D01*
X9718280Y-8162676D01*
X9718280Y-8371324D01*
X9727469Y-8417522D01*
X9753638Y-8456686D01*
X9792803Y-8482855D01*
X9839000Y-8492044D01*
X9885198Y-8482855D01*
X9924362Y-8456686D01*
X9950531Y-8417522D01*
X9959720Y-8371324D01*
X9959720Y-8162676D01*
X9950531Y-8116478D01*
X9924362Y-8077314D01*
X9885198Y-8051145D01*
X9881552Y-8050420D01*
X10045580Y-8050420D01*
X10045580Y-9869324D01*
X10039206Y-9862939D01*
X10039206Y-9214000D01*
X10029152Y-9163455D01*
X10000521Y-9120605D01*
X9957671Y-9091974D01*
X9932665Y-9087000D01*
X9957671Y-9082026D01*
X10000521Y-9053395D01*
X10029152Y-9010545D01*
X10039206Y-8960000D01*
X10029152Y-8909455D01*
X10000521Y-8866605D01*
X9959170Y-8838976D01*
X9990600Y-8838976D01*
X10008033Y-8835593D01*
X10023355Y-8825529D01*
X10033611Y-8810334D01*
X10037216Y-8792360D01*
X10037216Y-8619640D01*
X10033833Y-8602207D01*
X10023769Y-8586885D01*
X10008574Y-8576629D01*
X9990600Y-8573024D01*
X9850343Y-8573024D01*
X9778680Y-8501360D01*
X9753547Y-8484567D01*
X9748628Y-8483589D01*
X9723900Y-8478670D01*
X9723899Y-8478670D01*
X9584737Y-8478670D01*
X9584737Y-8247053D01*
X9569436Y-8210021D01*
X9541128Y-8181663D01*
X9504122Y-8166297D01*
X9464054Y-8166263D01*
X9427021Y-8181564D01*
X9398664Y-8209872D01*
X9383298Y-8246878D01*
X9383263Y-8286946D01*
X9398564Y-8323979D01*
X9426872Y-8352336D01*
X9463878Y-8367702D01*
X9503947Y-8367737D01*
X9540979Y-8352436D01*
X9569337Y-8324128D01*
X9584703Y-8287122D01*
X9584737Y-8247053D01*
X9584737Y-8478670D01*
X9124737Y-8478670D01*
X9124737Y-8247053D01*
X9109436Y-8210021D01*
X9081128Y-8181663D01*
X9044122Y-8166297D01*
X9004054Y-8166263D01*
X8967021Y-8181564D01*
X8938664Y-8209872D01*
X8923298Y-8246878D01*
X8923263Y-8286946D01*
X8938564Y-8323979D01*
X8966872Y-8352336D01*
X9003878Y-8367702D01*
X9043947Y-8367737D01*
X9080979Y-8352436D01*
X9109337Y-8324128D01*
X9124703Y-8287122D01*
X9124737Y-8247053D01*
X9124737Y-8478670D01*
X9038824Y-8478670D01*
X9038823Y-8478670D01*
X9009177Y-8484567D01*
X9000837Y-8490139D01*
X8984044Y-8501360D01*
X8984043Y-8501361D01*
X8890972Y-8594432D01*
X8884885Y-8594426D01*
X8849397Y-8609090D01*
X8822222Y-8636218D01*
X8807497Y-8671680D01*
X8807463Y-8710078D01*
X8822127Y-8745566D01*
X8849254Y-8772741D01*
X8884717Y-8787466D01*
X8923115Y-8787500D01*
X8958603Y-8772837D01*
X8985778Y-8745709D01*
X9000503Y-8710246D01*
X9000509Y-8704014D01*
X9070912Y-8633610D01*
X9147942Y-8633610D01*
X9135897Y-8638587D01*
X9108722Y-8665714D01*
X9093997Y-8701177D01*
X9093963Y-8739575D01*
X9108627Y-8775063D01*
X9135754Y-8802238D01*
X9171217Y-8816963D01*
X9209615Y-8816997D01*
X9245103Y-8802333D01*
X9253992Y-8793460D01*
X9262754Y-8802238D01*
X9298217Y-8816963D01*
X9336615Y-8816997D01*
X9372103Y-8802333D01*
X9375792Y-8798650D01*
X9386080Y-8808938D01*
X9386080Y-8960000D01*
X9390527Y-8982356D01*
X9403191Y-9001309D01*
X9657191Y-9255309D01*
X9657191Y-9255309D01*
X9676144Y-9267973D01*
X9676144Y-9267973D01*
X9698500Y-9272420D01*
X9754110Y-9272420D01*
X9777479Y-9307395D01*
X9820329Y-9336026D01*
X9844126Y-9340760D01*
X9803707Y-9356114D01*
X9766223Y-9391439D01*
X9746912Y-9431194D01*
X9754245Y-9451490D01*
X9872490Y-9451490D01*
X9872490Y-9449490D01*
X9905510Y-9449490D01*
X9905510Y-9451490D01*
X10023755Y-9451490D01*
X10031088Y-9431194D01*
X10011777Y-9391439D01*
X9974293Y-9356114D01*
X9933874Y-9340760D01*
X9957671Y-9336026D01*
X10000521Y-9307395D01*
X10029152Y-9264545D01*
X10039206Y-9214000D01*
X10039206Y-9862939D01*
X10031088Y-9854807D01*
X10031088Y-9504807D01*
X10023755Y-9484510D01*
X9905510Y-9484510D01*
X9905510Y-9588571D01*
X9926144Y-9598177D01*
X9974293Y-9579886D01*
X10011777Y-9544561D01*
X10031088Y-9504807D01*
X10031088Y-9854807D01*
X10002159Y-9825828D01*
X9943109Y-9801308D01*
X9879171Y-9801252D01*
X9872490Y-9804013D01*
X9872490Y-9588571D01*
X9872490Y-9484510D01*
X9754245Y-9484510D01*
X9746912Y-9504807D01*
X9766223Y-9544561D01*
X9803707Y-9579886D01*
X9851856Y-9598177D01*
X9872490Y-9588571D01*
X9872490Y-9804013D01*
X9820078Y-9825669D01*
X9774828Y-9870841D01*
X9750308Y-9929891D01*
X9750252Y-9993829D01*
X9774669Y-10052922D01*
X9819841Y-10098172D01*
X9878891Y-10122692D01*
X9942829Y-10122748D01*
X10001922Y-10098331D01*
X10045580Y-10054749D01*
X10045580Y-10933580D01*
X10045580Y-10933580D01*
G37*
X10045580Y-10933580D02*
X8462420Y-10933580D01*
X8462420Y-10054676D01*
X8505841Y-10098172D01*
X8564891Y-10122692D01*
X8628829Y-10122748D01*
X8687922Y-10098331D01*
X8733172Y-10053159D01*
X8757692Y-9994109D01*
X8757748Y-9930171D01*
X8733331Y-9871078D01*
X8688159Y-9825828D01*
X8629109Y-9801308D01*
X8565171Y-9801252D01*
X8506078Y-9825669D01*
X8462420Y-9869251D01*
X8462420Y-8050420D01*
X8626448Y-8050420D01*
X8622803Y-8051145D01*
X8583638Y-8077314D01*
X8557469Y-8116478D01*
X8548280Y-8162676D01*
X8548280Y-8371324D01*
X8557469Y-8417522D01*
X8583638Y-8456686D01*
X8622803Y-8482855D01*
X8669000Y-8492044D01*
X8715198Y-8482855D01*
X8754362Y-8456686D01*
X8780531Y-8417522D01*
X8789720Y-8371324D01*
X8789720Y-8162676D01*
X8780531Y-8116478D01*
X8754362Y-8077314D01*
X8715198Y-8051145D01*
X8711552Y-8050420D01*
X9796448Y-8050420D01*
X9792803Y-8051145D01*
X9753638Y-8077314D01*
X9727469Y-8116478D01*
X9718280Y-8162676D01*
X9718280Y-8371324D01*
X9727469Y-8417522D01*
X9753638Y-8456686D01*
X9792803Y-8482855D01*
X9839000Y-8492044D01*
X9885198Y-8482855D01*
X9924362Y-8456686D01*
X9950531Y-8417522D01*
X9959720Y-8371324D01*
X9959720Y-8162676D01*
X9950531Y-8116478D01*
X9924362Y-8077314D01*
X9885198Y-8051145D01*
X9881552Y-8050420D01*
X10045580Y-8050420D01*
X10045580Y-9869324D01*
X10039206Y-9862939D01*
X10039206Y-9214000D01*
X10029152Y-9163455D01*
X10000521Y-9120605D01*
X9957671Y-9091974D01*
X9932665Y-9087000D01*
X9957671Y-9082026D01*
X10000521Y-9053395D01*
X10029152Y-9010545D01*
X10039206Y-8960000D01*
X10029152Y-8909455D01*
X10000521Y-8866605D01*
X9959170Y-8838976D01*
X9990600Y-8838976D01*
X10008033Y-8835593D01*
X10023355Y-8825529D01*
X10033611Y-8810334D01*
X10037216Y-8792360D01*
X10037216Y-8619640D01*
X10033833Y-8602207D01*
X10023769Y-8586885D01*
X10008574Y-8576629D01*
X9990600Y-8573024D01*
X9850343Y-8573024D01*
X9778680Y-8501360D01*
X9753547Y-8484567D01*
X9748628Y-8483589D01*
X9723900Y-8478670D01*
X9723899Y-8478670D01*
X9584737Y-8478670D01*
X9584737Y-8247053D01*
X9569436Y-8210021D01*
X9541128Y-8181663D01*
X9504122Y-8166297D01*
X9464054Y-8166263D01*
X9427021Y-8181564D01*
X9398664Y-8209872D01*
X9383298Y-8246878D01*
X9383263Y-8286946D01*
X9398564Y-8323979D01*
X9426872Y-8352336D01*
X9463878Y-8367702D01*
X9503947Y-8367737D01*
X9540979Y-8352436D01*
X9569337Y-8324128D01*
X9584703Y-8287122D01*
X9584737Y-8247053D01*
X9584737Y-8478670D01*
X9124737Y-8478670D01*
X9124737Y-8247053D01*
X9109436Y-8210021D01*
X9081128Y-8181663D01*
X9044122Y-8166297D01*
X9004054Y-8166263D01*
X8967021Y-8181564D01*
X8938664Y-8209872D01*
X8923298Y-8246878D01*
X8923263Y-8286946D01*
X8938564Y-8323979D01*
X8966872Y-8352336D01*
X9003878Y-8367702D01*
X9043947Y-8367737D01*
X9080979Y-8352436D01*
X9109337Y-8324128D01*
X9124703Y-8287122D01*
X9124737Y-8247053D01*
X9124737Y-8478670D01*
X9038824Y-8478670D01*
X9038823Y-8478670D01*
X9009177Y-8484567D01*
X9000837Y-8490139D01*
X8984044Y-8501360D01*
X8984043Y-8501361D01*
X8890972Y-8594432D01*
X8884885Y-8594426D01*
X8849397Y-8609090D01*
X8822222Y-8636218D01*
X8807497Y-8671680D01*
X8807463Y-8710078D01*
X8822127Y-8745566D01*
X8849254Y-8772741D01*
X8884717Y-8787466D01*
X8923115Y-8787500D01*
X8958603Y-8772837D01*
X8985778Y-8745709D01*
X9000503Y-8710246D01*
X9000509Y-8704014D01*
X9070912Y-8633610D01*
X9147942Y-8633610D01*
X9135897Y-8638587D01*
X9108722Y-8665714D01*
X9093997Y-8701177D01*
X9093963Y-8739575D01*
X9108627Y-8775063D01*
X9135754Y-8802238D01*
X9171217Y-8816963D01*
X9209615Y-8816997D01*
X9245103Y-8802333D01*
X9253992Y-8793460D01*
X9262754Y-8802238D01*
X9298217Y-8816963D01*
X9336615Y-8816997D01*
X9372103Y-8802333D01*
X9375792Y-8798650D01*
X9386080Y-8808938D01*
X9386080Y-8960000D01*
X9390527Y-8982356D01*
X9403191Y-9001309D01*
X9657191Y-9255309D01*
X9657191Y-9255309D01*
X9676144Y-9267973D01*
X9676144Y-9267973D01*
X9698500Y-9272420D01*
X9754110Y-9272420D01*
X9777479Y-9307395D01*
X9820329Y-9336026D01*
X9844126Y-9340760D01*
X9803707Y-9356114D01*
X9766223Y-9391439D01*
X9746912Y-9431194D01*
X9754245Y-9451490D01*
X9872490Y-9451490D01*
X9872490Y-9449490D01*
X9905510Y-9449490D01*
X9905510Y-9451490D01*
X10023755Y-9451490D01*
X10031088Y-9431194D01*
X10011777Y-9391439D01*
X9974293Y-9356114D01*
X9933874Y-9340760D01*
X9957671Y-9336026D01*
X10000521Y-9307395D01*
X10029152Y-9264545D01*
X10039206Y-9214000D01*
X10039206Y-9862939D01*
X10031088Y-9854807D01*
X10031088Y-9504807D01*
X10023755Y-9484510D01*
X9905510Y-9484510D01*
X9905510Y-9588571D01*
X9926144Y-9598177D01*
X9974293Y-9579886D01*
X10011777Y-9544561D01*
X10031088Y-9504807D01*
X10031088Y-9854807D01*
X10002159Y-9825828D01*
X9943109Y-9801308D01*
X9879171Y-9801252D01*
X9872490Y-9804013D01*
X9872490Y-9588571D01*
X9872490Y-9484510D01*
X9754245Y-9484510D01*
X9746912Y-9504807D01*
X9766223Y-9544561D01*
X9803707Y-9579886D01*
X9851856Y-9598177D01*
X9872490Y-9588571D01*
X9872490Y-9804013D01*
X9820078Y-9825669D01*
X9774828Y-9870841D01*
X9750308Y-9929891D01*
X9750252Y-9993829D01*
X9774669Y-10052922D01*
X9819841Y-10098172D01*
X9878891Y-10122692D01*
X9942829Y-10122748D01*
X10001922Y-10098331D01*
X10045580Y-10054749D01*
X10045580Y-10933580D01*
M02*
